<?xml version="1.0" encoding="UTF-8" standalone="no"?>
<!-- Generator: Adobe Illustrator 19.1.0, SVG Export Plug-In . SVG Version: 6.00 Build 0)  -->

<svg
   xmlns:dc="http://purl.org/dc/elements/1.1/"
   xmlns:cc="http://creativecommons.org/ns#"
   xmlns:rdf="http://www.w3.org/1999/02/22-rdf-syntax-ns#"
   xmlns:svg="http://www.w3.org/2000/svg"
   xmlns="http://www.w3.org/2000/svg"
   xmlns:sodipodi="http://sodipodi.sourceforge.net/DTD/sodipodi-0.dtd"
   xmlns:inkscape="http://www.inkscape.org/namespaces/inkscape"
   version="1.1"
   id="Calque_2"
   x="0px"
   y="0px"
   viewBox="0 0 208 188"
   style="enable-background:new 0 0 208 188;"
   xml:space="preserve"
   sodipodi:docname="UMRAE.svg"
   inkscape:version="0.92.3 (2405546, 2018-03-11)"
   inkscape:export-filename="/home/gpetit/Nextcloud/Plateformes/Noise_Planet/Logo/Tutelles/UMRAE.png"
   inkscape:export-xdpi="529.87714"
   inkscape:export-ydpi="529.87714"><metadata
   id="metadata29"><rdf:RDF><cc:Work
       rdf:about=""><dc:format>image/svg+xml</dc:format><dc:type
         rdf:resource="http://purl.org/dc/dcmitype/StillImage" /></cc:Work></rdf:RDF></metadata><defs
   id="defs27" /><sodipodi:namedview
   pagecolor="#ffffff"
   bordercolor="#666666"
   borderopacity="1"
   objecttolerance="10"
   gridtolerance="10"
   guidetolerance="10"
   inkscape:pageopacity="0"
   inkscape:pageshadow="2"
   inkscape:window-width="1920"
   inkscape:window-height="1160"
   id="namedview25"
   showgrid="false"
   inkscape:zoom="1.2553191"
   inkscape:cx="104"
   inkscape:cy="94"
   inkscape:window-x="1920"
   inkscape:window-y="0"
   inkscape:window-maximized="1"
   inkscape:current-layer="Calque_2" />
<style
   type="text/css"
   id="style2">
	.st0{fill:#0B4155;}
	.st1{fill:#21ACE2;}
	.st2{fill:#157296;}
</style>
<g
   id="g22"
   transform="matrix(1.3284991,0,0,1.3284991,-34.19675,-29.671676)">
	<path
   class="st0"
   d="M 94.6,90.3 C 93.9,90.1 93.2,90 92.4,90 h -9.8 c -4.4,0 -6.8,2.4 -6.8,6.8 v 0.7 C 72.6,92 66.5,88.7 58.7,88.7 c -8,0 -15,3.3 -20.1,8.9 -0.3,1.2 -0.5,2.5 -0.7,3.7 -1.1,6 -1.7,12.2 -1.7,18.6 0,6.3 0.6,12.5 1.7,18.6 0.2,1.2 0.4,2.5 0.7,3.7 2.4,2.7 5.3,4.8 8.5,6.3 h 22.2 c 2.7,-1.5 4.9,-3.5 6.4,-6.1 v 0.6 c 0,2.5 0.8,4.4 2.3,5.5 h 16 c -5.1,-8.3 -8.1,-18.1 -8.1,-28.6 0,-10.9 3.2,-21 8.7,-29.6 z m -29.4,43 c -6.8,0 -11,-5.8 -11,-13.3 0,-7.5 4.2,-13.3 11,-13.3 6.8,0 11,5.8 11,13.3 0,7.5 -4.2,13.3 -11,13.3 z"
   id="path4"
   inkscape:connector-curvature="0"
   style="fill:#0b4155" />
	<path
   d="m 108.8,129.7 c -0.9,-3.1 -1.4,-6.3 -1.5,-9.7 0,0 0,0.1 0,0.1 0.1,3.4 0.6,6.6 1.5,9.6 z"
   id="path6"
   inkscape:connector-curvature="0" />
	<path
   d="m 107.4,120.1 c 0,-0.7 0,-1.4 0.1,-2.1 0,0.7 -0.1,1.3 -0.1,2 0,0 0,0 0,0.1 z"
   id="path8"
   inkscape:connector-curvature="0" />
	<path
   class="st0"
   d="m 164.8,97.3 c -6.1,-6.5 -14.7,-10.6 -24.2,-10.6 -17.4,0 -31.6,13.3 -33,30.3 0,0.3 0,0.6 0,0.9 0,0.7 -0.1,1.4 -0.1,2.1 0,3.4 0.5,6.6 1.5,9.7 2.5,8 7.8,14.7 14.9,18.8 h 33.7 c 4.2,-2.5 7.8,-5.8 10.6,-9.8 -0.2,-1.1 -0.7,-2.2 -1.6,-3.3 l -1.8,-2.4 c -2.5,-3.4 -5.6,-3.6 -9.4,-1.8 -4.1,1.9 -7.8,2.4 -10.6,2.4 -10.1,0 -15.3,-5.7 -15.3,-9 H 167 c 2,0 3.7,-0.4 5,-1.2 v -15.8 c -1.9,-4 -4.2,-7.5 -7.2,-10.3 z m -35.6,16.5 c 0.3,-5.8 6,-8.6 11.7,-8.6 5.8,0 11.4,2.8 11.7,8.6 z"
   id="path10"
   inkscape:connector-curvature="0"
   style="fill:#0b4155" />
	<path
   class="st1"
   d="m 73.9,39.8 c -0.1,-0.1 -0.2,-0.3 -0.3,-0.4 h -13 c -0.6,0.7 -0.9,1.7 -0.9,2.9 v 11.8 c 4.3,-5.2 9.1,-10 14.2,-14.3 z"
   id="path12"
   inkscape:connector-curvature="0"
   style="fill:#21ace2" />
	<path
   class="st1"
   d="M 50.9,58.8 V 42.4 c 0,-1.3 -0.3,-2.2 -0.9,-2.9 H 38 v 30.8 c 1.4,2.9 3.8,5.2 7.9,6.1 1.9,-4.2 4.2,-8.3 6.6,-12.2 -1.3,-1.3 -1.6,-3.4 -1.6,-5.4 z"
   id="path14"
   inkscape:connector-curvature="0"
   style="fill:#21ace2" />
	<path
   class="st2"
   d="m 59.8,71.2 v 0.4 c 0,2.8 1.5,4.3 4.3,4.3 h 6.2 c 2.8,0 4.3,-1.5 4.3,-4.3 V 42.4 c 0,-1 -0.2,-1.9 -0.6,-2.6 -5.2,4.3 -9.9,9.1 -14.2,14.3 v 4.6 c 0,2.9 -0.6,6.4 -4.4,6.4 -1.3,0 -2.2,-0.4 -2.8,-1 -2.5,3.9 -4.7,8 -6.6,12.2 1,0.2 2.1,0.4 3.4,0.4 5,0 8.3,-2.1 10.4,-5.5 z"
   id="path16"
   inkscape:connector-curvature="0"
   style="fill:#157296" />
	<path
   class="st2"
   d="m 81.6,71.6 c 0,2.8 1.5,4.3 4.3,4.3 h 6.2 c 2.8,0 4.3,-1.5 4.3,-4.3 V 54.8 c 0,-2.9 0.6,-5.9 3.5,-5.9 2.9,0 3.5,2.9 3.5,5.9 v 16.8 c 0,2.8 1.5,4.3 4.3,4.3 h 0.8 c 3,-2.2 6.2,-4.1 9.7,-5.7 V 54.8 c 0,-2.9 0.6,-5.9 3.5,-5.9 2.9,0 3.5,2.9 3.5,5.9 v 12.9 c 4.7,-1.4 9.7,-2.2 14.8,-2.3 V 53.8 c 0,-4.4 -1.5,-11 -6.2,-14.4 h -15.3 c -1.1,0.8 -2.3,1.8 -3.4,3.2 -0.8,-1.2 -1.8,-2.3 -3,-3.2 H 98.9 c -1.1,0.9 -1.9,2 -2.4,3.4 v -0.4 c 0,-1.3 -0.3,-2.2 -0.9,-2.9 h -13 c -0.6,0.7 -0.9,1.7 -0.9,2.9 v 29.2 z"
   id="path18"
   inkscape:connector-curvature="0"
   style="fill:#157296" />
	<path
   class="st2"
   d="m 146.6,65.6 c 5.2,0.5 10.2,1.8 14.8,3.7 v -9.9 c 0,-4 1.4,-8.1 7.5,-8.1 0.5,0 1,0 1.7,0.1 0.4,0 0.8,0 1.1,-0.1 V 39.4 h -7.3 c -1.6,1.3 -3,3.4 -3.5,6.6 v -3.7 c 0,-1.3 -0.3,-2.2 -0.9,-2.9 h -12.4 c -0.6,0.7 -0.9,1.7 -0.9,2.9 v 23.3 z"
   id="path20"
   inkscape:connector-curvature="0"
   style="fill:#157296" />
</g>
</svg>